<?xml version="1.0" encoding="UTF-8"?>
<!DOCTYPE svg PUBLIC "-//W3C//DTD SVG 1.1//EN" "http://www.w3.org/Graphics/SVG/1.1/DTD/svg11.dtd">
<!-- Creator: CorelDRAW -->
<svg xmlns="http://www.w3.org/2000/svg" xml:space="preserve" width="210mm" height="297mm" version="1.1" style="shape-rendering:geometricPrecision; text-rendering:geometricPrecision; image-rendering:optimizeQuality; fill-rule:evenodd; clip-rule:evenodd"
viewBox="0 0 21000 29700"
 xmlns:xlink="http://www.w3.org/1999/xlink"
 xmlns:xodm="http://www.corel.com/coreldraw/odm/2003">
 <defs>
  <style type="text/css">
   <![CDATA[
    .fil0 {fill:#0C3C6D}
    .fil1 {fill:#0C3C6D}
    .fil2 {fill:#FEFFFF}
   ]]>
  </style>
 </defs>
 <g id="Ebene_x0020_1">
  <metadata id="CorelCorpID_0Corel-Layer"/>
  <path class="fil0" d="M13448.9 13759.45c-95.25,-17.62 -165.41,-53.18 -243.57,-97.57 -86.19,-48.96 -142.89,-115.36 -212.3,-145.23 -57.91,-2.36 -810.17,394.45 -1874.96,280.99 -1174.83,-125.17 -2099.46,-749.53 -2728.92,-1660.47 -705.7,-1021.29 -785.64,-2351.25 -335.82,-3499.82 115.3,-294.4 417.75,-789.54 632.57,-1023 251.83,-273.64 574.82,-550.98 904.28,-750.14 490.6,-296.57 1064.04,-483.16 1658.75,-534.92 410.86,-35.75 682.71,24.35 1061.08,49.97 -183.88,-132.66 -874.94,-243.48 -1158.22,-264.43 -810.71,-59.97 -1638.62,80.7 -2341.26,453.07 -273.15,144.76 -784.88,473.42 -952.88,646.48 -277.53,285.9 -314.22,304.84 -589.15,656.92 -187.57,240.21 -376.21,582.87 -514.99,917.9 -612.49,1478.69 -303.58,3186.27 676.82,4380.11 211.31,257.31 443.69,478.16 723.49,690.42 271.47,205.94 551.59,365.8 906.3,525.96 683.24,308.49 1627.11,423.64 2438.33,281.1 558.78,-98.18 1073.18,-302.28 1531.86,-587.68 107.76,-67.05 354.27,-221.38 418.59,-319.66z"/>
  <path class="fil1" d="M10951.04 8451.47l2518.86 1896.26c244.58,149.62 539.74,-181.24 234.62,-402.08 -73.32,-53.06 -114.41,-81.02 -182.58,-133.76 -701.92,-543.09 -1458.86,-1085.55 -2162.36,-1631.52 -435.76,-338.19 -423.1,-303.6 -798.27,-10.89l-2343.35 1767.11c-61.97,44.92 -125.68,88.21 -135.97,182.45 -20.68,189.25 172.12,326.86 347.73,233.75l2342.59 -1767.1c47.81,-36.78 127.74,-103.4 178.73,-134.22z"/>
  <path class="fil1" d="M14923.51 10006.13c0,576.77 -194.15,1069.17 -435.36,1458.87 -159.84,258.25 188.66,508.51 376.53,208.1 965.4,-1543.72 430.97,-3646.48 -1077.93,-4581.27 -126.44,-78.34 -533.42,-370.42 -617.59,-51.27 -59.78,226.7 174.27,265.66 468.76,461.07 683.51,453.54 1285.59,1304.83 1285.59,2504.5z"/>
  <path class="fil1" d="M13220.72 7734.29c-189.45,62.26 -205.64,282.33 -37.7,389.86 434.97,278.52 688.67,584.34 874.81,1114.94 120.79,344.32 150.02,774.43 52.52,1159.64 -53.79,212.53 -100.27,306.68 -190.11,479.24 -162.6,312.3 403.89,835.16 643.73,-602.56 66.86,-400.73 9.45,-808.27 -101.22,-1162.27 -108.07,-345.7 -281.1,-605.7 -469.85,-850.59 -87.62,-113.67 -553.63,-600.09 -772.18,-528.26z"/>
  <path class="fil2" d="M13756.68 12476.72c245.34,-102.26 338.6,260.73 150.54,340.75 -230.18,97.94 -402.13,-235.9 -150.54,-340.75zm671.18 204.39c3.59,-142.02 115.66,-85.36 264.92,-92.92 -8.28,-404.2 -406.61,-837.45 -809.19,-811.75 -28.23,312.96 25,208.14 -60.07,254.07 -76.49,-40.19 -36.22,48.21 -58.12,-108.9 -3.91,-27.97 -0.8,-106.39 -3.11,-143.96 -371.37,-13.61 -860.31,436.29 -794.57,817.05 139.23,4.44 250.25,-45.65 260.08,86.41 -63.38,44.88 -181.39,25.96 -267.89,29.07 -12.93,408.42 405.83,828.35 804.69,805.74 16.52,-314 -17.79,-240.68 58.92,-272.23 87.82,36.83 44.03,10.32 56.78,274.34 394.11,19.88 839.63,-412.57 804.32,-806.57 -45.82,-2.06 -110.46,1.43 -151.15,-2.52l-105.61 -27.83z"/>
  <path class="fil1" d="M14427.86 12681.11l105.61 27.83c40.69,3.95 105.33,0.46 151.15,2.52 35.31,394 -410.21,826.45 -804.32,806.57 -12.75,-264.02 31.04,-237.51 -56.78,-274.34 -76.71,31.55 -42.4,-41.77 -58.92,272.23 -398.86,22.61 -817.62,-397.32 -804.69,-805.74 86.5,-3.11 204.51,15.81 267.89,-29.07 -9.83,-132.06 -120.85,-81.97 -260.08,-86.41 -65.74,-380.76 423.2,-830.66 794.57,-817.05 2.31,37.57 -0.8,115.99 3.11,143.96 21.9,157.11 -18.37,68.71 58.12,108.9 85.07,-45.93 31.84,58.89 60.07,-254.07 402.58,-25.7 800.91,407.55 809.19,811.75 -149.26,7.56 -261.33,-49.1 -264.92,92.92zm-673.94 -1091.48c-116.21,68.55 -586.05,52.95 -854.32,599.23 -171.52,349.26 -0.81,405.26 -294.79,407.09 -108.38,0.67 -134.72,-28.19 -168.42,59.78 39.8,103.12 222.83,47.36 352.91,68.78 160.11,964.71 842.97,868.95 952.42,976.48 46.65,45.85 9.99,217.58 23.18,275.75 17.99,79.47 -9.18,51.34 58.62,85.53 65.94,-33.93 27.68,7.84 51.21,-63.56l11.22 -245.63c44.33,-219.65 726.37,96.97 985.13,-1037.37 59.92,-2.93 112.46,-1.42 171.7,-2l160.42 -23.73c4.49,-1.61 12.58,-5.11 18.16,-8.87 -11.02,-94.9 2.1,-85.78 -101.99,-95.31 -66.37,-6.06 -153.68,2.2 -229.75,-3.61 -124.37,-181.79 -54.25,-819.88 -1006.29,-976.14 -8.73,-110.59 8.75,-278.73 -34.43,-352.16 -141.22,12.54 -80.73,-9.24 -94.98,335.74z"/>
  <path class="fil2" d="M11122.69 11225.52c73.52,67.19 100.66,56.45 148.53,168.57 106.97,250.56 -108.23,528.97 -395.8,470.94 -280.66,-56.63 -348.34,-426.71 -159.85,-584.2 81.06,-67.73 67.16,-30.27 67.54,-236.49 -514.06,154.57 -433.35,1006.55 183.05,992.31 419.15,-9.69 643.52,-485.74 407.34,-801.76 -42.75,-57.2 -166.13,-166.83 -248.88,-175.53l-1.93 166.16z"/>
  <path class="fil1" d="M13034.72 8590.93c-301.72,144.7 -85.51,568.92 210.97,441.24 300.16,-129.27 97.56,-589.2 -210.97,-441.24z"/>
  <path class="fil2" d="M10868.48 11382.41c0.09,120.62 96.24,178.67 153.54,95.44 24.91,-36.2 28.24,-532.23 -12.83,-618.93l-114.14 0.61c-50.12,98.75 -26.67,387.78 -26.57,522.88z"/>
  <path class="fil1" d="M13756.68 12476.72c-251.59,104.85 -79.64,438.69 150.54,340.75 188.06,-80.02 94.8,-443.01 -150.54,-340.75z"/>
  <path class="fil1" d="M10413.47 12522.07l3.11 -429.37c-332.87,-279.86 -713.81,-574.19 -587.16,-1251.68 85.77,-458.78 473.28,-892.41 944.07,-936.69l1.47 2891.36 417.64 -7.01 0.29 -2886.54c1154.3,182.21 1261,1778.32 358.13,2161.81l4.46 463.7c598.97,-228.44 1134.16,-881.4 990.76,-1748.58 -281.09,-1699.81 -2772.93,-1758.66 -3119.26,-56.75 -172.54,847.91 405.28,1678.84 986.49,1799.75z"/>
 </g>
</svg>
